<?xml version="1.0" standalone="no"?>
<!DOCTYPE svg PUBLIC "-//W3C//DTD SVG 20010904//EN"
 "http://www.w3.org/TR/2001/REC-SVG-20010904/DTD/svg10.dtd">
<svg version="1.0" xmlns="http://www.w3.org/2000/svg"
 width="723.000000pt" height="723.000000pt" viewBox="0 0 723.000000 723.000000"
 preserveAspectRatio="xMidYMid meet">
<metadata>
Created by potrace 1.14, written by Peter Selinger 2001-2017
</metadata>
<g transform="translate(0.000000,723.000000) scale(0.100000,-0.100000)"
fill="#000000" stroke="none">
<path d="M3418 7065 c-2 -2 -46 -6 -98 -9 -52 -4 -106 -8 -120 -10 -14 -2 -47
-7 -73 -11 -27 -4 -57 -8 -67 -10 -9 -2 -33 -6 -51 -9 -19 -3 -45 -8 -59 -11
-14 -2 -50 -10 -80 -16 -153 -30 -452 -123 -567 -175 -17 -8 -34 -14 -38 -14
-9 0 -359 -172 -365 -180 -3 -3 -27 -19 -55 -34 -44 -26 -204 -128 -230 -148
-5 -4 -53 -40 -105 -80 -52 -39 -96 -76 -98 -80 -2 -4 -7 -8 -11 -8 -17 0
-285 -258 -386 -370 -94 -105 -197 -239 -280 -365 -33 -49 -63 -91 -67 -93 -5
-2 -8 -7 -8 -12 0 -6 -40 -77 -100 -180 -15 -25 -90 -179 -117 -239 -13 -31
-28 -65 -33 -76 -59 -131 -156 -443 -185 -597 -2 -11 -6 -27 -9 -36 -6 -21
-14 -68 -31 -182 -3 -25 -8 -57 -11 -73 -4 -27 -12 -106 -19 -202 -6 -67 -6
-416 -1 -485 7 -96 24 -232 41 -337 4 -25 32 -164 41 -203 3 -14 7 -34 9 -45
2 -11 11 -45 20 -75 9 -30 20 -71 25 -91 10 -36 53 -166 70 -204 4 -11 23 -58
41 -105 18 -47 40 -96 48 -110 9 -13 15 -26 13 -27 -5 -6 116 -239 173 -333
66 -110 185 -286 212 -315 10 -11 29 -36 43 -55 13 -19 27 -37 31 -40 3 -3 30
-34 60 -70 72 -88 254 -269 364 -364 50 -42 102 -88 117 -102 15 -13 30 -24
34 -24 3 0 21 -12 39 -27 176 -148 572 -367 855 -471 216 -80 443 -142 614
-168 22 -3 43 -7 46 -9 3 -2 30 -6 60 -9 30 -4 69 -9 85 -11 179 -25 697 -26
820 -1 11 2 45 7 76 10 31 4 66 8 77 11 11 2 35 6 53 9 19 3 45 8 59 11 14 3
36 7 50 10 49 9 66 13 145 34 44 11 109 30 145 41 36 12 72 23 80 25 27 6 164
57 215 80 28 12 61 26 75 30 30 10 303 146 310 155 3 3 20 12 38 19 17 8 32
17 32 22 0 5 6 9 13 9 10 1 52 26 151 92 195 132 339 251 526 438 160 159 199
204 326 375 57 77 107 145 112 150 53 71 237 407 284 520 54 127 92 228 109
285 11 36 24 74 28 85 11 24 38 120 45 155 3 14 10 45 17 70 20 82 23 95 33
150 3 19 9 46 11 60 3 14 8 48 10 75 2 28 6 61 9 75 26 118 38 494 22 685 -4
44 -9 108 -11 143 -3 35 -7 66 -9 70 -2 4 -7 32 -10 62 -3 30 -9 66 -11 80 -3
14 -8 41 -11 60 -2 19 -8 49 -13 65 -5 17 -17 66 -27 110 -21 94 -21 94 -24
100 -1 3 -3 8 -4 13 -5 20 -38 129 -43 142 -3 8 -7 20 -9 25 -28 114 -191 470
-292 640 -69 117 -191 298 -237 352 -5 7 -15 18 -20 25 -121 155 -351 396
-480 503 -33 28 -62 53 -65 56 -3 3 -45 36 -95 74 -248 188 -561 363 -840 470
-38 15 -79 31 -90 36 -24 10 -190 60 -290 87 -66 18 -75 20 -92 23 -16 2 -29
5 -53 11 -51 13 -140 29 -177 33 -21 3 -48 7 -61 9 -13 3 -51 8 -85 12 -34 3
-80 8 -102 10 -46 6 -492 13 -497 9z m202 -271 c0 -2 -9 -4 -21 -4 -11 0 -18
4 -14 10 5 8 35 3 35 -6z m-53 0 c-4 -4 -22 -8 -39 -10 -76 -5 -164 -14 -178
-19 -8 -2 -31 -7 -50 -9 -19 -3 -46 -7 -60 -10 -14 -3 -36 -8 -50 -11 -14 -3
-36 -7 -49 -10 -114 -22 -470 -134 -498 -157 -7 -6 -13 -7 -13 -4 0 4 -12 1
-27 -7 -16 -8 -92 -45 -170 -83 -79 -37 -143 -72 -143 -76 0 -4 -6 -8 -14 -8
-26 0 -280 -167 -412 -271 -139 -110 -320 -280 -414 -389 -12 -14 -42 -48 -66
-76 -24 -28 -71 -87 -103 -130 -60 -80 -62 -90 -18 -98 39 -8 104 -29 115 -38
6 -6 12 -8 12 -4 0 4 13 0 30 -9 16 -8 31 -15 32 -14 3 0 21 -6 108 -40 143
-56 394 -183 570 -287 139 -83 159 -95 174 -107 6 -4 56 -37 111 -74 104 -69
306 -212 315 -223 3 -3 21 -17 40 -30 19 -13 37 -27 40 -30 3 -3 38 -31 78
-62 72 -55 74 -56 183 -73 115 -17 159 -22 222 -24 20 -1 37 -5 37 -11 0 -5
-6 -8 -12 -5 -7 2 -76 6 -153 9 -77 3 -151 8 -165 10 -14 3 -50 7 -80 11 -30
3 -68 8 -85 11 -28 6 -53 10 -82 13 -9 1 -129 85 -143 101 -3 3 -52 40 -110
83 -58 43 -112 83 -121 90 -8 7 -23 17 -31 22 -36 24 -143 99 -148 104 -3 3
-14 11 -25 17 -11 7 -81 50 -155 96 -174 109 -215 133 -390 221 -184 93 -513
229 -585 241 -5 1 -19 7 -29 13 -17 10 -14 17 45 94 97 128 173 214 294 334
127 127 175 170 285 255 25 19 54 43 64 52 11 10 23 18 27 18 4 0 14 6 21 13
51 48 308 202 464 278 60 29 111 54 114 54 3 1 16 6 30 12 146 63 275 106 433
148 142 37 150 39 208 49 19 3 45 8 59 11 14 3 45 8 70 11 25 2 56 7 70 9 14
3 54 7 90 11 35 3 65 6 67 7 1 1 50 4 110 5 59 2 105 0 100 -4z m-2672 -1604
c21 -1 121 -33 131 -43 3 -3 -2 -21 -11 -39 -106 -203 -222 -487 -250 -608 -2
-8 -17 -69 -34 -135 -17 -66 -33 -140 -37 -165 -3 -25 -7 -50 -8 -55 -2 -6 49
-37 113 -70 126 -64 414 -233 419 -247 2 -4 8 -8 13 -8 13 0 133 -81 137 -92
2 -4 8 -8 13 -8 9 0 80 -50 239 -167 36 -26 67 -50 70 -53 3 -3 47 -36 98 -75
50 -38 92 -73 92 -77 0 -5 6 -8 14 -8 8 0 16 -4 18 -8 2 -4 23 -23 48 -42 25
-19 47 -37 50 -40 4 -5 127 -104 180 -147 8 -6 51 -42 95 -78 44 -37 89 -74
100 -84 11 -9 45 -36 75 -61 30 -25 57 -47 60 -51 3 -3 25 -21 50 -40 25 -19
56 -44 70 -56 22 -19 58 -48 132 -107 13 -10 44 -34 71 -54 26 -20 47 -40 47
-44 0 -4 5 -8 12 -8 6 0 18 -7 27 -15 36 -34 130 -105 139 -105 6 0 12 -3 14
-8 4 -9 126 -102 134 -102 2 0 17 -11 32 -25 15 -14 32 -25 39 -25 6 0 13 -4
15 -8 6 -14 234 -163 388 -252 58 -33 112 -65 120 -70 21 -13 287 -144 330
-163 19 -8 51 -22 70 -30 98 -43 365 -136 465 -162 43 -12 44 -12 50 -15 3 -1
8 -3 13 -4 4 -1 21 -5 37 -9 17 -4 39 -10 50 -12 16 -4 158 -35 225 -49 32 -7
106 -20 120 -21 8 -1 33 -4 55 -8 22 -4 60 -9 85 -12 25 -3 63 -8 84 -11 47
-8 100 -12 144 -13 17 -1 32 -5 32 -9 0 -4 -24 -7 -52 -6 -75 3 -237 15 -273
19 -16 3 -59 7 -95 10 -36 4 -76 9 -90 12 -14 2 -32 5 -40 5 -8 0 -37 5 -65
10 -27 5 -63 11 -80 13 -16 3 -41 7 -55 10 -26 6 -105 22 -150 31 -181 36
-620 183 -758 253 -20 10 -40 19 -45 19 -27 2 -449 228 -455 244 -2 4 -9 8
-14 8 -22 0 -479 313 -618 423 -8 7 -67 52 -130 102 -153 119 -147 115 -221
177 -24 20 -60 50 -80 65 -36 29 -95 77 -174 143 -23 19 -62 51 -86 70 -24 19
-62 51 -85 70 -23 19 -50 42 -60 50 -110 88 -180 146 -182 152 -2 5 -8 8 -14
8 -5 0 -15 6 -22 13 -24 22 -60 51 -126 102 -36 27 -67 52 -70 55 -5 5 -123
93 -250 186 -70 52 -344 235 -390 262 -219 126 -289 165 -354 197 -50 24 -76
43 -76 53 1 10 10 58 21 107 10 50 21 99 23 111 1 11 6 25 9 31 3 5 8 20 11
34 8 42 35 139 41 149 3 5 8 18 10 27 4 17 48 142 62 173 3 8 7 17 8 20 2 5
10 24 37 90 29 69 103 215 111 218 4 2 7 9 7 16 0 6 12 29 26 50 19 27 29 35
37 27 6 -6 20 -11 32 -11z m5580 -170 c-3 -5 -2 -10 3 -10 5 0 12 -9 15 -19 4
-16 -4 -23 -42 -36 -25 -8 -50 -17 -56 -18 -10 -2 -58 -20 -100 -37 -51 -20
-85 -32 -92 -32 -4 0 -12 -3 -18 -8 -5 -4 -41 -20 -80 -35 -38 -14 -83 -33
-100 -40 -16 -8 -64 -28 -105 -45 -79 -33 -106 -44 -142 -60 -13 -5 -52 -21
-88 -36 -36 -14 -78 -32 -95 -39 -90 -41 -456 -178 -505 -190 -8 -2 -55 -18
-105 -35 -49 -18 -97 -33 -106 -35 -9 -2 -49 -13 -89 -25 -40 -12 -80 -24 -89
-26 -114 -29 -261 -64 -281 -68 -14 -3 -35 -7 -46 -10 -19 -4 -39 -8 -119 -22
-20 -3 -48 -8 -120 -19 -22 -3 -50 -8 -63 -10 -13 -2 -53 -7 -90 -10 -37 -4
-74 -8 -82 -10 -8 -3 -85 -7 -169 -10 -85 -4 -158 -8 -162 -11 -4 -2 -10 0
-14 6 -4 6 12 10 42 11 26 1 57 3 68 5 11 2 47 5 80 8 61 5 92 9 155 20 19 3
51 8 70 11 51 7 84 13 185 35 50 10 101 21 115 24 14 3 45 10 70 17 25 6 53
13 63 15 9 2 25 6 35 9 120 33 182 51 262 77 52 16 100 31 105 33 6 1 18 5 27
9 9 4 22 9 30 10 7 2 20 6 28 9 23 10 184 68 195 71 6 2 24 8 40 15 17 6 50
19 75 28 25 9 51 21 58 26 6 5 12 7 12 4 0 -5 34 8 135 54 105 46 605 249 721
292 270 101 386 134 369 107z m-3168 -889 c47 -1 57 -6 135 -68 45 -37 85 -69
88 -73 5 -5 114 -95 150 -123 33 -25 126 -103 138 -114 7 -7 33 -27 57 -44 25
-18 45 -36 45 -41 0 -4 6 -8 14 -8 7 0 19 -7 26 -16 8 -8 73 -61 147 -116 73
-56 131 -103 129 -105 -2 -3 -41 -13 -85 -22 -78 -17 -81 -17 -97 1 -10 10
-21 18 -26 18 -5 0 -15 6 -23 13 -24 22 -55 47 -60 47 -3 0 -29 19 -58 43 -29
23 -66 52 -82 64 -35 26 -42 32 -195 153 -63 51 -117 95 -120 99 -3 3 -23 19
-45 36 -22 16 -47 36 -55 45 -8 9 -35 32 -60 51 -75 56 -190 153 -190 159 0 3
26 4 58 4 31 -1 80 -2 109 -3z m3479 -148 c1 -17 -6 -23 -35 -28 -91 -17 -468
-150 -721 -254 -125 -52 -135 -56 -200 -84 -19 -8 -91 -38 -160 -67 -69 -28
-154 -63 -190 -78 -36 -15 -67 -27 -70 -28 -3 0 -16 -5 -30 -11 -77 -32 -422
-153 -480 -169 -8 -2 -46 -13 -85 -25 -38 -11 -93 -27 -121 -34 -94 -23 -94
-26 -2 -82 253 -153 421 -238 683 -343 129 -51 371 -130 480 -155 6 -2 39 -11
75 -20 36 -10 74 -19 85 -21 11 -1 22 -3 25 -4 3 -1 10 -3 15 -4 6 -1 33 -6
60 -11 28 -5 52 -10 55 -10 28 -7 121 -23 180 -31 25 -3 56 -7 70 -10 14 -2
53 -7 87 -10 84 -8 91 -9 100 -18 4 -4 -37 -5 -92 -2 -205 12 -317 25 -530 61
-16 3 -46 8 -65 11 -77 12 -309 69 -415 102 -27 8 -51 15 -52 14 -2 -1 -22 6
-45 14 -24 9 -47 17 -53 18 -5 2 -17 6 -25 9 -8 3 -49 18 -90 33 -146 53 -297
119 -450 197 -160 82 -179 93 -241 130 -20 12 -66 40 -103 62 -65 40 -78 52
-53 52 41 0 601 178 702 223 53 24 355 140 363 140 6 0 12 3 14 8 2 4 41 23
88 41 47 19 105 44 130 55 25 11 47 21 50 21 3 0 14 6 25 12 11 6 25 12 30 13
6 1 19 6 30 10 11 5 83 33 160 63 77 30 149 58 160 62 11 5 22 9 25 10 3 1 70
22 150 48 80 26 154 49 165 52 11 3 56 14 100 25 44 11 94 23 110 26 17 3 31
7 33 8 1 2 15 3 30 2 20 -1 27 -6 28 -23z m-6258 -184 c31 -17 69 -39 84 -47
l27 -16 0 -120 c0 -130 6 -279 15 -342 3 -21 8 -63 11 -93 4 -30 9 -63 11 -75
5 -26 25 -133 30 -166 3 -14 7 -33 10 -42 3 -9 6 -25 8 -35 3 -14 24 -92 40
-148 18 -65 40 -132 44 -140 4 -5 7 -17 9 -25 1 -8 9 -32 19 -55 9 -22 20 -49
24 -60 40 -107 156 -348 194 -400 11 -16 20 -32 20 -35 -2 -9 144 -236 180
-281 12 -14 30 -38 41 -53 11 -16 25 -33 30 -40 6 -6 42 -49 81 -96 108 -129
314 -329 433 -420 18 -14 38 -29 45 -35 34 -29 96 -75 101 -75 3 0 14 -8 25
-17 22 -22 194 -129 276 -174 146 -79 394 -194 394 -182 0 3 6 1 13 -5 17 -14
205 -76 323 -107 141 -37 240 -57 374 -75 41 -5 89 -12 105 -14 17 -2 47 -5
68 -5 20 -1 37 -4 37 -9 0 -8 -16 -8 -200 3 -69 5 -135 9 -147 9 -13 1 -23 3
-23 6 0 3 -10 5 -22 6 -27 0 -112 12 -148 19 -14 3 -41 8 -60 11 -98 15 -419
105 -493 138 -18 7 -59 24 -92 36 -69 27 -292 133 -382 184 -456 255 -901 690
-1162 1136 -34 58 -66 112 -71 120 -14 23 -58 114 -60 125 -1 6 -11 22 -21 37
-10 14 -19 29 -19 33 0 4 -7 22 -15 41 -8 19 -21 49 -29 67 -53 120 -157 454
-171 549 -4 23 -8 45 -10 48 -2 3 -6 24 -9 46 -4 22 -9 51 -11 64 -8 38 -18
121 -31 240 -7 76 -12 403 -6 472 4 45 5 46 28 38 14 -6 50 -24 82 -41z m5136
-2410 c3 -2 -15 -5 -40 -5 -24 0 -44 3 -44 7 0 7 77 6 84 -2z m-2014 -979 c0
-5 -2 -10 -4 -10 -3 0 -8 5 -11 10 -3 6 -1 10 4 10 6 0 11 -4 11 -10z"/>
</g>
</svg>
